<?xml version="1.0" encoding="UTF-8"?>
<svg width="161.66mm" height="49.174mm" version="1.1" viewBox="0 0 161.66 49.174" xmlns="http://www.w3.org/2000/svg" xmlns:cc="http://creativecommons.org/ns#" xmlns:dc="http://purl.org/dc/elements/1.1/" xmlns:osb="http://www.openswatchbook.org/uri/2009/osb" xmlns:rdf="http://www.w3.org/1999/02/22-rdf-syntax-ns#">
 <metadata>
  <rdf:RDF>
   <cc:Work rdf:about="">
    <dc:format>image/svg+xml</dc:format>
    <dc:type rdf:resource="http://purl.org/dc/dcmitype/StillImage"/>
    <dc:title/>
   </cc:Work>
  </rdf:RDF>
 </metadata>
 <g transform="translate(-50.879 -70.167)" fill="#beeffa" fill-rule="evenodd" stroke="#000" stroke-linejoin="bevel" stroke-width=".4">
  <path d="m62.286 77.952c-1.008-0.63283-2.1602-0.0444-3.0335 1.1112-0.211 0.27922-0.41958 1.0212-0.58336 1.4223-0.49718 1.2176-2.0569 1.4266-2.7612 2.1779-0.24363 0.25989-0.47087 0.57944-0.70002 0.88896-0.91894 1.2412-2.0162 2.6342-1.7501 5.067 0.06274 0.57369 0.05434 0.96659 0.31112 1.3334 0.55692 0.79563 1.2888 0.20185 1.9056 0.57782 0.30157 0.18382 0.50916 0.65161 0.77781 0.97783 0.36975 0.449 0.81846 0.85046 1.2445 1.0223 0.93133 0.37569 2.6053-0.32255 3.3446 0.31114 0.31812 0.27266 0.48876 1.0561 0.62225 1.6446 0.54143 2.3868-0.0256 4.9965-1.3612 5.3782-0.91077 0.26023-1.9096-0.79707-2.8001-0.13334-0.72318 0.53903-1.3462 1.6011-2.0612 2.1779-1.0676 0.86131-2.3108 0.47597-3.189 2.1779-0.44794 0.86808-1.678 3.4754-1.1667 4.9781 0.41407 1.2169 1.5635-0.14557 2.1001-0.22223 0.99038-0.14149 1.8027 1.6059 2.8001 1.3779 1.2746-0.29136 2.3233-2.2005 3.5001-3.0224 0.67745-0.47316 1.4514-0.11259 2.0223-1.2001 0.39918-0.76036 0.77637-1.5616 1.2056-2.2668 0.1134-0.18631 0.25312-0.3119 0.35001-0.53337 0.43407-0.99218 0.47504-2.3632 0.85559-3.378 0.78966-2.1058 1.7379-1.178 1.5945-5.1115-0.01202-0.32952-0.0982-1.2094-0.23334-1.4668-0.38483-0.73304-0.95797-0.87495-1.4001-1.4223-0.82772-1.0248-1.7949-2.3754-2.7612-2.8002-0.55236-0.2428-1.1241-0.18651-1.6723-0.44446-0.70238-0.33054-1.4636-0.20426-2.139-0.75561-0.03567-0.0291-0.49764-0.63133-0.31112-0.84451 0.11848-0.13541 0.95645 0.26583 1.4001-0.17779 0.53208-0.53209 0.91355-1.5431 1.4389-2.089 1.1721-1.2178 2.5173-1.4163 3.7724-2.1335 0.9679-0.55309 0.61026-2.6515-0.19445-3.1113z" style="mix-blend-mode:normal;paint-order:normal"/>
  <path d="m70.388 107.49c-0.11373-0.51075-0.51562-0.17521-0.71909-0.40003-0.94079-1.0394-1.1616-4.4776-1.1616-6.0449 0-0.59172 0.14182-1.8611-0.16594-2.3557-0.26432-0.42479-0.75691-0.63388-0.88503-1.2001-0.28138-1.2436-0.27524-2.7406-0.66378-3.9114-0.40614-1.2238-1.4924-1.4104-1.936-2.6224-0.5096-1.3922-0.52858-3.941-0.22126-5.4226 0.13647-0.65798 0.39486-1.3016 0.55314-1.9557 0.54862-2.2672 0.97321-4.6534 2.5998-5.8671 1.8119-1.3519 3.8106-0.73892 5.7527-1.3334 1.0912-0.33403 2.2793-1.2434 3.2083-2.1335 0.13598-0.13028 1.0721-1.2981 1.2722-1.2445 0.91243 0.24439 1.5031 1.0716 2.2679 1.7334 1.4944 1.2932 2.4476 1.241 2.5445 4.0447 0.08727 2.5245-1.463 6.3123-3.0423 7.3783-1.0792 0.72842-2.2869 1.0722-3.3742 1.7779-0.83896 0.54449-1.3602 1.5286-2.1573 2.1335-0.64628 0.49046-2.6283 1.2101-2.987 2.2668-0.25792 0.75989-0.11063 1.6467-0.11063 2.4446 0 1.6467 0.05718 3.5526 0.55315 5.067 0.37244 1.1372-0.058-0.29051 0.3872 0.71117 0.15042 0.33843 0.1949 0.77639 0.38721 1.1112 0.06564 0.11429 0.1475 0.20742 0.22126 0.31114 0.11063 0.11852 0.24386 0.20323 0.33189 0.35558 0.49646 0.85922 0.71253 1.9625 1.1616 2.8446 0.31762 0.62389 0.8349 1.3538 1.2722 1.8224 0.06066 0.0651 0.16991 0.11407 0.16595 0.22223-0.02436 0.6656-0.26118 1.5667-0.44252 2.2224-0.05647 0.20419-0.06758 0.57782-0.22126 0.57782-0.18453 0-0.50772-0.54131-0.66377-0.66671-0.50086-0.40246-1.0595-0.69934-1.6041-0.97784-0.79439-0.4062-1.6184-0.18098-2.3232-0.88895z" style="mix-blend-mode:normal;paint-order:normal"/>
  <path d="m83.142 76.103c0.20282 0.1926 0.42658 0.34642 0.60846 0.57782 0.26358 0.33533 0.2273 2.6825 0.16594 3.2002-0.04926 0.41568-0.24367 0.82158-0.27657 1.2445-0.05745 0.73851-0.05532 1.6177-0.05532 2.3557 0 0.7006 0.16594 1.3964 0.16594 2.089 0 2.0275-0.29762 5.3489-0.82972 7.2894-0.19687 0.71795-1.3771 2.7196-1.3275 3.5558 0.13746 2.3196 1.3308 4.1984 1.2169 6.6227-0.09788 2.0843-1.1446 4.116-0.11062 6.0893 0.65976 1.2591 2.7188-0.92693 3.7614-0.62228 0.76715 0.22417 1.2968 0.98703 1.936 1.5557 1.0336 0.91953 2.3174 1.9417 3.5401 2.2224 0.54304 0.12467 1.2008 0.13195 1.7148-0.17779 0.47952-0.289 0.49191-1.426 0.77441-1.9557 0.29344-0.55018 0.84539-1.0635 1.2722-1.3779 0.60499-0.44564 3.3728-1.0745 3.4848-1.6446 0.04514-0.22964 0.05533-0.47265 0.05533-0.71116 0-0.77509-0.01973-1.7493-0.55315-2.1779-0.59782-0.48037-3.4648 1.5969-4.3145 1.7334-1.6225 0.26075-3.0143-1.461-4.4252-2.3113-1.0001-0.60268-2.9795-0.54376-3.5954-1.8224-0.39385-0.81756-0.9129-4.3779-0.05532-5.067 0.36456-0.29294 0.8721-0.12741 1.2722-0.31113 0.4739-0.2176 1.2907-0.85114 1.6594-1.1556 1.5441-1.2752 3.1255-3.451 4.9783-3.6892 0.71346-0.0917 4.3765 0.93248 4.8677 0.0444 0.25896-0.46816 0.03808-0.76294-0.16594-1.2001-0.68672-1.4715-1.5039-2.0162-2.7104-2.3113-1.9082-0.46666-3.2024 2.42-4.923 3.1113-1.3455 0.5406-2.1722 0.0182-3.0423-1.5112-1.1083-1.9481-1.2755-4.3681-0.82972-6.756 0.38231-2.0481 1.625-2.9819 3.0423-3.2447 0.69571-0.12901 1.4746 0.0402 2.1573-0.22224 0.2156-0.0828 0.39622-0.30101 0.60846-0.40003 4.1531-1.9377-1.7884 1.1343 2.102-0.97784 1.8383-0.99808 3.6511-1.7261 4.3145-4.7114 0.11831-0.53236-0.69347-1.0034-0.88504-1.0667-1.2581-0.41627-2.4575 0.30447-3.7061 0.40003-1.375 0.10523-2.8285-0.2551-4.2039-0.35558-1.8384-0.13429-6.3578 0.0766-7.1356 2.8891" style="mix-blend-mode:normal;paint-order:normal"/>
  <path d="m110.96 71.144c-2.0287-0.0188-3.8319 1.4107-5.5315 2.8446-2.1183 1.7873-3.3208 2.7593-4.8677 5.556-0.53904 0.97457-0.60607 0.87895-0.88504 2.0446-0.50923 2.1278-0.1743 2.5139-0.11063 4.3559 0.02985 0.86383 0 1.7228 0 2.578 0 1.0775 0.21908 2.2685 0.33189 3.3336 0.33074 3.1226 0.39945 6.4377 1.4382 9.2895 0.88586 2.4321 2.3913 3.9443 3.5954 6.0004 1.3548 2.3134 2.7894 5.0526 5.089 5.2004 1.3344 0.0858 3.1028-0.56762 4.2592-1.6001 0.96631-0.86272 0.19197-0.32418 0.88504-1.0667 0.36236-0.38823 0.94035-1.1883 0.94035-1.9557 0-1.7152-1.3889-1.5557-2.2126-1.5557-1.356 0-2.831 0.70515-4.1486-0.0889-0.9544-0.57516-1.7781-1.8528-2.5445-2.8002-0.58981-0.72912-1.4569-0.97275-1.9913-1.7779-0.25685-0.38699-0.32094-0.95341-0.44252-1.4223-0.58141-2.2425-0.88763-4.8173 0.16594-6.9338 0.50815-1.0208 2.0118-1.4464 2.102-2.5335 0.12153-1.4648-0.53186-2.97-1.3276-3.8225-0.17209-0.18437-0.34949-0.29498-0.49783-0.53338-0.28892-0.46431-0.59063-1.5758-0.66378-2.2224-0.19058-1.6845 0.44924-2.0693 1.2722-3.1558 0.73711-0.97307 2.2176-2.9012 3.0976-3.4669 1.3542-0.87055 2.9476-0.86547 4.2592-1.7335 1.1328-0.7496 2.3244-2.2241 3.1529-3.5558 0.33635-0.54055-0.72153-1.2272-0.94034-1.3779-1.1657-0.80286-2.7146-0.43425-3.9273-0.0444" style="mix-blend-mode:normal;paint-order:normal"/>
  <path d="m118.62 71.621c1.198 0.19139 2.3737-0.40003 3.5954-0.40003 1.9768 0 3.8758 0.62031 5.8634 0.40003 1.196-0.13257 2.4117-0.27097 3.5954-0.53337 0.69986-0.15514 1.4472-0.53338 2.1573-0.53338 1.6513 0 3.2115 0.68845 4.7571 1.4223 0.83616 0.39702 2.2616 0.95276 2.5998 2.3113 0.29897 1.2012-1.0571 2.5153-1.6041 3.0224-1.2971 1.2026-2.4103 0.58839-3.8167 0.40003-2.3625-0.31641-4.6456-0.64734-6.5271 1.9112-0.63532 0.86395-0.99758 1.1539-0.94035 2.5335 0.11954 2.8815 0.95955 2.5201 1.8807 4.2225 0.54304 1.0036 0.86603 2.3059 0.99566 3.5558 0.19047 1.8366-1.1742 5.6767-1.9913 7.0672-0.69678 1.1856-2.0466 2.1795-2.0466 3.9558 0 0.26077 0.24548 0.39258 0.3319 0.62227 0.45615 1.2124 0.86343 2.4853 1.2722 3.7336 0.83703 2.5559 0.76447 6.4808 0.11064 9.0673-0.42299 1.6733-0.4869 1.9839-1.6041 2.1335-1.2833 0.17187-1.6167-0.29049-2.3785-1.7335-0.35011-0.66314-0.8757-1.3731-1.051-2.1779-0.5108-2.3454-0.22621-4.5536-0.0553-6.9338 0.17837-2.4845 0.29548-4.9859 0.44251-7.4672 0.15241-2.5721-0.0712-5.3725-0.3872-7.9117-0.20342-1.6346-0.80307-2.969-1.2169-4.4892-0.3131-1.1501-0.47097-3.0453-1.3276-3.7336-0.79689-0.64035-4.6817-0.50279-5.6974-0.44449-0.6187 0.0355-2.8714 0.20589-3.0423-0.75559-0.0642-0.36121 0.0569-0.64665 0.11062-0.97786 0.0926-0.57023-0.0153-0.56101 0.16595-1.0223 0.82488-2.099 2.7677-2.8477 3.8167-4.5336" style="mix-blend-mode:normal;paint-order:normal"/>
  <path d="m136.42 82.968c0.27498 0.88386 0.38358 1.0115 0.44251 1.9112 0.0496 0.75642-0.0409 1.3606-0.11064 2.089-0.26119 2.7286-0.21324 4.8032-0.99565 7.4228-0.4369 1.4628-1.273 3.0743-1.4382 4.667-0.14303 1.3792-0.11064 3.0407-0.11064 4.4448 0 1.1254 0.18255 2.3867 0.0553 3.5114-0.0446 0.39423-0.17233 0.76244-0.22125 1.1556-0.14608 1.1738-0.26101 2.3445-0.44252 3.5114-0.0435 0.27959-0.18676 0.47833-0.22126 0.75561-0.17043 1.3695-0.3872 2.7271-0.3872 4.0892 0 0.20473-0.34433 1.7234-0.27658 1.7779 0.11911 0.0957 0.21624 0.43236 0.44252 0.57781 1.6885 1.0854 3.5092-0.40186 4.3145-2.6668 0.26503-0.74534-0.30138-2.0044-0.38719-2.7113-0.08-0.65895-0.11064-1.3314-0.11064-2.0002 0-1.8222 0.25455-4.4272 0.82973-6.0449 0.31054-0.87335 0.85298-1.8351 1.2169-2.8002 0.69402-1.8403 1.1494-4.0645 2.821-4.4003 0.52772-0.10601 1.0301 0.19258 1.3276 0.8445 0.27351 0.59939 0.21244 0.92826 0.33189 1.6001 0.14694 0.82652 0.36918 1.556 0.49783 2.4002 0.17799 1.168 0.21618 2.4242 0.49782 3.5558 0.43196 1.7354 1.1272 3.7028 2.102 4.9337 1.0974 1.3856 4.1604 2.7573 5.5868 2.2224 0.92964-0.34859 1.6419-1.8608 2.0466-3.0224 0.233-0.66863 0.49784-1.2744 0.49784-2.0446 0-0.99604-0.0937-0.79102-0.16595-1.7779-0.14524-1.984-1.0666-2.4752-2.0466-3.6002-0.6091-0.69918-0.98543-1.717-1.4935-2.5335-0.56003-0.90001-1.4165-1.2867-1.9913-2.1335-0.45755-0.67404-0.68179-1.5691-0.94035-2.4002-0.15044-0.48356-0.37578-0.97496-0.44251-1.5112-0.11494-0.92357 0.46589-1.9804 0.77441-2.6668 0.46638-1.0378 0.8816-1.887 1.6041-2.6224 0.91878-0.93514 2.0353-1.4497 2.7104-2.8446 0.22144-0.45758 0.69094-1.9033 0.3872-2.4891-0.93298-1.7992-1.8283-4.0747-3.2636-5.1559-0.78267-0.5896-2.7311-1.2745-3.6508-1.4223-1.4463-0.23244-4.8355-0.23622-6.1952 0.62226-0.51797 0.32702-0.94502 0.84965-1.3829 1.3334-0.1431 0.1581-0.32097 0.2047-0.44252 0.40003" style="mix-blend-mode:normal;paint-order:normal"/>
  <path d="m136.42 82.968 1.7701-3.0224" style="mix-blend-mode:normal;paint-order:normal"/>
  <path d="m83.142 76.103 0.55316-0.80009" style="mix-blend-mode:normal;paint-order:normal"/>
  <path d="m110.96 71.144 0.49784-0.4444" style="mix-blend-mode:normal;paint-order:normal"/>
  <path d="m116.62 74.332 1.9913-2.7113" style="mix-blend-mode:normal;paint-order:normal"/>
  <path d="m161.3 76.683c0.21835 0.90327 0.31854 1.038 0.32019 1.9436 2e-3 0.76128-0.12735 1.3612-0.243 2.0868-0.43418 2.7182-0.51782 4.8006-1.4651 7.3766-0.52895 1.4384-1.4657 3.0008-1.7318 4.5866-0.23025 1.3733-0.30346 3.0406-0.39265 4.4479-0.0715 1.1279 0.0306 2.4037-0.16777 3.5228-0.0695 0.3923-0.22052 0.75325-0.29436 1.1442-0.22044 1.1672-0.40942 2.3333-0.66466 3.4913-0.0613 0.27747-0.21686 0.46761-0.26897 0.74332-0.25694 1.3618-0.55965 2.7088-0.64617 4.074-0.013 0.2052-0.45296 1.7056-0.38888 1.7644 0.11285 0.10344 0.18848 0.44701 0.4049 0.6071 1.6162 1.1947 3.5276-0.18082 4.4752-2.4 0.31179-0.73027-0.17339-2.028-0.21418-2.7419-0.0379-0.6655-0.0257-1.3414 0.0168-2.0117 0.11575-1.8263 0.53525-4.4212 1.212-6.0061 0.36555-0.85568 0.96784-1.7853 1.3923-2.7296 0.80952-1.8006 1.4052-4.001 3.0949-4.2319 0.53337-0.07287 1.0157 0.25818 1.2712 0.9304 0.23499 0.61805 0.15302 0.9438 0.22962 1.6247 0.0941 0.83768 0.26962 1.5828 0.34437 2.4371 0.10328 1.1819 0.0619 2.4434 0.27094 3.5954 0.32083 1.7667 0.88969 3.7825 1.7843 5.0778 1.0071 1.4582 3.9768 3.0267 5.4343 2.5808 0.9499-0.29059 1.7567-1.7612 2.2345-2.8998 0.27493-0.65541 0.57778-1.2458 0.62671-2.0177 0.0633-0.99828-0.0432-0.79873-0.0527-1.7924-0.0188-1.9977-0.9072-2.5483-1.8138-3.7379-0.56343-0.73929-0.87438-1.7832-1.3295-2.6337-0.50174-0.93747-1.332-1.3793-1.8518-2.2643-0.4138-0.70452-0.58075-1.6158-0.786-2.4651-0.11947-0.49418-0.31305-1.0009-0.3456-1.5426-0.0559-0.93294 0.59075-1.9554 0.94223-2.6239 0.5314-1.0107 0.99971-1.8355 1.7675-2.5269 0.97631-0.87914 2.1233-1.3243 2.8856-2.6797 0.25003-0.44462 0.81045-1.8639 0.54453-2.4702-0.81681-1.8623-1.5657-4.1996-2.9294-5.3741-0.74361-0.64044-2.6446-1.4502-3.553-1.6564-1.4286-0.32446-4.8107-0.54262-6.2222 0.23181-0.53773 0.29499-0.99708 0.7918-1.4648 1.249-0.15268 0.14941-0.33349 0.18485-0.46705 0.37294" style="mix-blend-mode:normal;paint-order:normal"/>
  <path d="m161.29 76.743 1.9577-2.9044" style="mix-blend-mode:normal;paint-order:normal"/>
  <path d="m208.4 88.533c-0.53646 2.6419-1.0729 5.2837-1.6094 7.9256-0.28562 1.4066-0.57125 2.8132-0.85687 4.2198-0.19738 0.97201-0.3963 1.9114-0.48198 2.8914-0.0203 0.23269-0.13876 0.45314-0.13945 0.68671-4.7e-4 0.14601 0.0963 0.27801 0.11401 0.42296 0.0261 0.21408-0.067 0.47204-0.04 0.68901 0.0171 0.13746 0.17713 0.21821 0.2295 0.34646 0.0691 0.16912-0.17574 0.0293 0.057 0.21146 0.28897 0.22613 0.69803 0.24164 1.0446 0.31202 0.35183 0.0714 1.0997 0.39751 1.4235 0.18917 0.0298-0.0191 0.65411-3.162 0.67869-3.3423 0.10671-0.7838-0.10837-1.5926-0.0858-2.3849 0.0204-0.71693-1e-3 -0.93419 0.11071-1.7392 0.0405-0.291 0.13717-0.5725 0.1754-0.86381 0.0496-0.37812-8e-3 -1.5819 4e-3 -1.7795 0.0124-0.20497 0.0988-0.39976 0.12259-0.60373 0.0795-0.68359 0.12009-1.4208 0.12177-2.107 1e-3 -0.54094 0.3558-1.0939 0.33169-1.6334-0.0209-0.46724 0.0343-0.71959-0.0557-1.2164-0.0373-0.20604 0.0687-0.46916 0.041-0.6942-0.041-0.33204 0.34044-0.83135 0.23218-1.1434-0.0187-0.05401-0.35454-0.15748-0.39339-0.17983-0.08-0.04605-0.073-0.18492-0.153-0.23097-0.27895-0.16049-0.59704-0.06103-0.87103 0.02423z" style="mix-blend-mode:normal;paint-order:normal"/>
  <path d="m207.62 84.728c-0.21446-0.82002-0.0584-1.6457 0.10658-2.4582 0.073-0.35933 7e-3 -0.15424 0.33077-0.63597 0.5497-0.8167 1.2927-1.5078 2.3416-1.0072 1.2021 0.57376 2.5156 3.6549 1.815 4.8726-0.19384 0.33691-0.50104 0.65828-0.70087 0.96491-0.0791 0.12135-0.0989 0.27801-0.18932 0.39117-0.0226 0.02818-0.071-0.03014-0.10612-0.02155-0.12645 0.03102-0.21952 0.1932-0.34502 0.22854-0.34874 0.09821-0.62695 0.1673-0.99953 0.09164-0.44543-0.09045-1.1475-0.49694-1.4046-0.88492-0.11049-0.16681-0.17112-0.4756-0.33357-0.50859z" style="mix-blend-mode:normal;paint-order:normal"/>
  <path d="m181.12 106.95c0.44574-1.4745 1.1603-2.6357 2.788-2.8682 0.18284-0.0261 0.37491 0.0448 0.5541 0 0.38687-0.0967 0.97236-0.27616 1.3852-0.13853 0.19953 0.0665 1.7528 1.8141 1.8302 1.9687 0.18852 0.37704 0.0969 0.83755 0.13852 1.257 0.0183 0.1838 0.12838 0.42131 0 0.5541-0.2811 0.2908-0.79307 0.3241-1.2404 0.54775-0.37896 0.18948-0.68414 0.30956-1.1082 0.41558-0.17919 0.0448-0.37492-0.0448-0.5541 0-1.4097 0.35243-2.6776 0.0385-3.5818-0.95301-0.18226-0.19985-0.12774-0.5262-0.21151-0.78338z" style="mix-blend-mode:normal;paint-order:normal"/>
  <path d="m193.51 106.81c0.6693-1.1295 0.7256-2.6675 0.5844-4.0177-0.0571-0.5463-0.46317-1.0366-0.51947-1.6071-0.18625-1.8857-0.40603-3.8712 0.3896-5.6613 0.63668-1.4325 3.8252-0.89363 5.1297-1.1688 0.44127-0.09308 0.88367-0.35462 0.58439-0.80355-1.8446-2.7669-6.8716-1.5483-7.9218-3.6159-0.1624-0.31972 0.43576-2.1915 0.51946-2.4472 0.36757-1.1224 1.7413-4.5755 2.6622-5.223 0.64753-0.4553 1.9071-0.50459 2.6622-0.2922 2.0406 0.57394 2.9735 1.938 2.5973 4.0542-0.13979 0.78632-0.59685 1.5147-0.7792 2.3011-0.0861 0.3713-0.41213 2.0605 0.25973 2.155 1.8589 0.26142 2.0684-2.1997 2.4674-3.3968 0.25393-0.76178 0.9154-0.96034 1.2986-1.6071 0.53307-0.89958 0.78049-3.0878 0.51947-4.0177-0.11062-0.39405-0.74822-1.2428-0.90907-1.461-0.54348-0.7373-1.2105-1.4114-2.0129-1.8628-1.9128-1.076-6.22-1.9134-8.1166-0.54787-1.412 1.0167-2.0173 2.6487-2.6622 4.1638-0.39855 0.9363-0.83726 1.6915-1.1039 2.6663-0.50273 1.8381-0.57679 3.839-0.38959 5.7344 0.0197 0.19944 0.31509 0.96042 0.12987 1.1688-1.0844 1.2199-1.4084-0.02813-2.3376 0.1461-1.3074 0.24515-2.859 1.3934-3.3116 2.6663-0.18045 0.5075 0.5021 0.56247 0.7792 0.62092 0.60171 0.12693 1.2034 0.30238 1.8181 0.36524 0.79362 0.08116 2.6366-0.19705 3.2466 0.1461 0.7866 0.44247 0.50789 1.2405 0.58439 1.9723 0.0585 0.55977 0.3336 1.0921 0.3896 1.6436 0.0108 0.10603-0.10677 0.18814-0.12987 0.29219-0.0505 0.2271-0.1948 2.1402-0.1948 2.301 0 0.76701 0.25973 1.5663 0.25973 2.301 0 0.43584-0.24064 1.0614-0.12986 1.4975 0.0685 0.26976 0.42374 1.1895 0.58439 1.4245 0.30522 0.44637 1.1317 0.48529 1.5584 0.58439z" style="mix-blend-mode:normal;paint-order:normal"/>
 </g>
</svg>
