<?xml version="1.0" encoding="UTF-8" standalone="no"?>
<svg
   xmlns:osb="http://www.openswatchbook.org/uri/2009/osb"
   xmlns:dc="http://purl.org/dc/elements/1.1/"
   xmlns:cc="http://creativecommons.org/ns#"
   xmlns:rdf="http://www.w3.org/1999/02/22-rdf-syntax-ns#"
   xmlns:svg="http://www.w3.org/2000/svg"
   xmlns="http://www.w3.org/2000/svg"
   xmlns:xlink="http://www.w3.org/1999/xlink"
   xmlns:sodipodi="http://sodipodi.sourceforge.net/DTD/sodipodi-0.dtd"
   xmlns:inkscape="http://www.inkscape.org/namespaces/inkscape"
   width="161.66313mm"
   height="49.173538mm"
   viewBox="0 0 161.66314 49.173538"
   version="1.1"
   id="svg1127"
   inkscape:version="1.0.2 (e86c870879, 2021-01-15)"
   sodipodi:docname="spectrr-logo-blue-light.svg">
  <defs
     id="defs1121">
    <linearGradient
       inkscape:collect="always"
       id="linearGradient1595">
      <stop
         style="stop-color:#beeffa;stop-opacity:1;"
         offset="0"
         id="stop1591" />
      <stop
         style="stop-color:#beeffa;stop-opacity:0;"
         offset="1"
         id="stop1593" />
    </linearGradient>
    <linearGradient
       id="linearGradient3196"
       osb:paint="solid">
      <stop
         style="stop-color:#a4c1ca;stop-opacity:1;"
         offset="0"
         id="stop3194" />
    </linearGradient>
    <linearGradient
       inkscape:collect="always"
       xlink:href="#linearGradient1595"
       id="linearGradient1597"
       x1="50.764539"
       y1="93.967385"
       x2="65.72849"
       y2="93.967385"
       gradientUnits="userSpaceOnUse" />
    <linearGradient
       inkscape:collect="always"
       xlink:href="#linearGradient1595"
       id="linearGradient1599"
       x1="64.231046"
       y1="91.507791"
       x2="83.036884"
       y2="91.507791"
       gradientUnits="userSpaceOnUse" />
    <linearGradient
       inkscape:collect="always"
       xlink:href="#linearGradient1595"
       id="linearGradient1601"
       x1="81.390752"
       y1="92.30255"
       x2="99.8375"
       y2="92.30255"
       gradientUnits="userSpaceOnUse" />
    <linearGradient
       inkscape:collect="always"
       xlink:href="#linearGradient1595"
       id="linearGradient1603"
       x1="99.200535"
       y1="91.310442"
       x2="116.59509"
       y2="91.310442"
       gradientUnits="userSpaceOnUse" />
    <linearGradient
       inkscape:collect="always"
       xlink:href="#linearGradient1595"
       id="linearGradient1605"
       x1="112.31105"
       y1="93.548236"
       x2="141.42624"
       y2="93.548236"
       gradientUnits="userSpaceOnUse" />
    <linearGradient
       inkscape:collect="always"
       xlink:href="#linearGradient1595"
       id="linearGradient1607"
       x1="132.50968"
       y1="98.351071"
       x2="154.93545"
       y2="98.351071"
       gradientUnits="userSpaceOnUse" />
    <linearGradient
       inkscape:collect="always"
       xlink:href="#linearGradient1595"
       id="linearGradient1609"
       x1="136.25081"
       y1="81.456969"
       x2="138.36603"
       y2="81.456969"
       gradientUnits="userSpaceOnUse" />
    <linearGradient
       inkscape:collect="always"
       xlink:href="#linearGradient1595"
       id="linearGradient1611"
       x1="82.977612"
       y1="75.702659"
       x2="83.859791"
       y2="75.702659"
       gradientUnits="userSpaceOnUse" />
    <linearGradient
       inkscape:collect="always"
       xlink:href="#linearGradient1595"
       id="linearGradient1613"
       x1="110.83074"
       y1="70.922054"
       x2="111.59496"
       y2="70.922054"
       gradientUnits="userSpaceOnUse" />
    <linearGradient
       inkscape:collect="always"
       xlink:href="#linearGradient1595"
       id="linearGradient1615"
       x1="116.46312"
       y1="72.976789"
       x2="118.77684"
       y2="72.976789"
       gradientUnits="userSpaceOnUse" />
    <linearGradient
       inkscape:collect="always"
       xlink:href="#linearGradient1595"
       id="linearGradient1617"
       x1="155.14983"
       y1="92.264755"
       x2="178.15977"
       y2="92.264755"
       gradientUnits="userSpaceOnUse" />
    <linearGradient
       inkscape:collect="always"
       xlink:href="#linearGradient1595"
       id="linearGradient1619"
       x1="161.1281"
       y1="75.29061"
       x2="163.41749"
       y2="75.29061"
       gradientUnits="userSpaceOnUse" />
    <linearGradient
       inkscape:collect="always"
       xlink:href="#linearGradient1595"
       id="linearGradient1621"
       x1="205.11425"
       y1="97.459755"
       x2="210.03994"
       y2="97.459755"
       gradientUnits="userSpaceOnUse" />
    <linearGradient
       inkscape:collect="always"
       xlink:href="#linearGradient1595"
       id="linearGradient1623"
       x1="207.15948"
       y1="83.821455"
       x2="212.60461"
       y2="83.821455"
       gradientUnits="userSpaceOnUse" />
    <linearGradient
       inkscape:collect="always"
       xlink:href="#linearGradient1595"
       id="linearGradient1625"
       x1="180.93334"
       y1="106.36193"
       x2="188.08263"
       y2="106.36193"
       gradientUnits="userSpaceOnUse" />
    <linearGradient
       inkscape:collect="always"
       xlink:href="#linearGradient1595"
       id="linearGradient1627"
       x1="183.02242"
       y1="92.099465"
       x2="204.273"
       y2="92.099465"
       gradientUnits="userSpaceOnUse" />
  </defs>
  <sodipodi:namedview
     id="base"
     pagecolor="#ffffff"
     bordercolor="#666666"
     borderopacity="1.0"
     inkscape:pageopacity="0.0"
     inkscape:pageshadow="2"
     inkscape:zoom="1.480943"
     inkscape:cx="251.62678"
     inkscape:cy="-5.7197906"
     inkscape:document-units="mm"
     inkscape:current-layer="layer1"
     inkscape:document-rotation="0"
     showgrid="false"
     fit-margin-top="0"
     fit-margin-left="0"
     fit-margin-right="0"
     fit-margin-bottom="0"
     inkscape:window-width="1920"
     inkscape:window-height="1052"
     inkscape:window-x="0"
     inkscape:window-y="0"
     inkscape:window-maximized="1" />
  <metadata
     id="metadata1124">
    <rdf:RDF>
      <cc:Work
         rdf:about="">
        <dc:format>image/svg+xml</dc:format>
        <dc:type
           rdf:resource="http://purl.org/dc/dcmitype/StillImage" />
        <dc:title></dc:title>
      </cc:Work>
    </rdf:RDF>
  </metadata>
  <g
     inkscape:label="Layer 1"
     inkscape:groupmode="layer"
     id="layer1"
     transform="translate(-50.879492,-70.166783)">
    <path
       style="opacity:1;mix-blend-mode:normal;fill:url(#linearGradient1597);fill-opacity:1;fill-rule:evenodd;stroke:#000000;stroke-width:0.4;stroke-linecap:butt;stroke-linejoin:bevel;stroke-opacity:1;stroke-miterlimit:4;stroke-dasharray:9.59999996, 0.40000000000000002;stroke-dashoffset:0;paint-order:normal"
       d="m 62.28619,77.952224 c -1.008049,-0.63283 -2.16023,-0.0444 -3.033453,1.11119 -0.211,0.27922 -0.419578,1.02122 -0.583357,1.42231 -0.497181,1.21763 -2.056876,1.42661 -2.761221,2.17793 -0.243633,0.25989 -0.470873,0.57944 -0.700025,0.88896 -0.91894,1.2412 -2.016155,2.63417 -1.75007,5.06702 0.06274,0.57369 0.05434,0.96659 0.311121,1.33342 0.556924,0.79563 1.288836,0.20185 1.905633,0.57782 0.301568,0.18382 0.509155,0.65161 0.777808,0.97783 0.369749,0.449 0.818461,0.85046 1.244495,1.0223 0.931331,0.37569 2.605282,-0.32255 3.344576,0.31114 0.318121,0.27266 0.488762,1.05612 0.622247,1.64456 0.54143,2.38678 -0.0256,4.99653 -1.361166,5.37815 -0.910769,0.260226 -1.909635,-0.79707 -2.80011,-0.13334 -0.723183,0.539026 -1.3462,1.601096 -2.061194,2.177926 -1.067645,0.86131 -2.310787,0.47597 -3.189014,2.17793 -0.447939,0.86808 -1.678047,3.47536 -1.166711,4.97811 0.414073,1.21691 1.563531,-0.14557 2.100082,-0.22223 0.990384,-0.14149 1.802725,1.60586 2.80011,1.37788 1.274639,-0.29136 2.323341,-2.20051 3.500138,-3.02244 0.677447,-0.47316 1.451388,-0.11259 2.022303,-1.20008 0.399179,-0.76036 0.776371,-1.56164 1.205601,-2.26683 0.113403,-0.18631 0.253123,-0.3119 0.350014,-0.53337 0.434067,-0.99218 0.475035,-2.36317 0.85559,-3.378006 0.789657,-2.10581 1.737915,-1.17795 1.594508,-5.11146 -0.01202,-0.32952 -0.0982,-1.20936 -0.233343,-1.46677 -0.384831,-0.73304 -0.957969,-0.87495 -1.400056,-1.42233 -0.827721,-1.02484 -1.794911,-2.37542 -2.76122,-2.8002 -0.552362,-0.2428 -1.124149,-0.18651 -1.672288,-0.44446 -0.702377,-0.33054 -1.463593,-0.20426 -2.138972,-0.75561 -0.03567,-0.0291 -0.497643,-0.63133 -0.311124,-0.84451 0.118483,-0.13541 0.956448,0.26583 1.400054,-0.17779 0.532079,-0.53209 0.913546,-1.54314 1.438947,-2.08903 1.17209,-1.21778 2.517251,-1.41626 3.772371,-2.13348 0.967901,-0.55309 0.610255,-2.65147 -0.194454,-3.11133 z"
       id="path78" />
    <path
       style="opacity:1;mix-blend-mode:normal;fill:url(#linearGradient1599);fill-opacity:1;fill-rule:evenodd;stroke:#000000;stroke-width:0.4;stroke-linecap:butt;stroke-linejoin:bevel;stroke-opacity:1;stroke-miterlimit:4;stroke-dasharray:9.59999996, 0.40000000000000002;stroke-dashoffset:0;paint-order:normal"
       d="m 70.387686,107.48758 c -0.113732,-0.51075 -0.515616,-0.17521 -0.71909,-0.40003 -0.940786,-1.03944 -1.161607,-4.47757 -1.161607,-6.04486 0,-0.59172 0.141818,-1.861116 -0.165945,-2.355716 -0.264317,-0.42479 -0.756914,-0.63388 -0.885032,-1.20008 -0.281382,-1.24356 -0.275236,-2.7406 -0.663779,-3.91139 -0.406137,-1.22379 -1.492377,-1.41038 -1.936009,-2.62239 -0.509598,-1.39224 -0.528577,-3.94095 -0.221258,-5.42261 0.136473,-0.65798 0.394856,-1.30156 0.553144,-1.95569 0.548623,-2.2672 0.973212,-4.65342 2.599787,-5.86708 1.811858,-1.35191 3.810615,-0.73892 5.752722,-1.33342 1.091217,-0.33403 2.279251,-1.24344 3.208256,-2.13348 0.135977,-0.13028 1.072133,-1.29813 1.272234,-1.24453 0.912427,0.24439 1.50308,1.0716 2.267899,1.73345 1.494355,1.29315 2.447555,1.24102 2.544478,4.04473 0.08727,2.52447 -1.46296,6.31227 -3.04231,7.37829 -1.079199,0.72842 -2.286863,1.0722 -3.374195,1.7779 -0.838955,0.54449 -1.360242,1.52861 -2.157268,2.13348 -0.646278,0.49046 -2.628338,1.21012 -2.986993,2.26682 -0.25792,0.75989 -0.110632,1.64667 -0.110632,2.44461 0,1.6467 0.05718,3.55259 0.553148,5.06701 0.372438,1.137236 -0.058,-0.29051 0.387202,0.711166 0.150418,0.33843 0.194902,0.77639 0.387208,1.11119 0.06564,0.11429 0.147504,0.20742 0.221255,0.31114 0.110628,0.11852 0.243857,0.20323 0.331886,0.35558 0.496463,0.85922 0.712528,1.96254 1.161611,2.84463 0.317625,0.62389 0.834903,1.35381 1.272234,1.82236 0.06066,0.0651 0.169906,0.11407 0.165948,0.22223 -0.02436,0.6656 -0.261177,1.56668 -0.442518,2.22237 -0.05647,0.20419 -0.06758,0.57782 -0.221262,0.57782 -0.184529,0 -0.507722,-0.54131 -0.663771,-0.66671 -0.500859,-0.40246 -1.059474,-0.69934 -1.604128,-0.97784 -0.794386,-0.4062 -1.618353,-0.18098 -2.323215,-0.88895 z"
       id="path80" />
    <path
       style="opacity:1;mix-blend-mode:normal;fill:url(#linearGradient1601);fill-opacity:1;fill-rule:evenodd;stroke:#000000;stroke-width:0.4;stroke-linecap:butt;stroke-linejoin:bevel;stroke-opacity:1;stroke-miterlimit:4;stroke-dasharray:9.59999996, 0.40000000000000002;stroke-dashoffset:0;paint-order:normal"
       d="m 83.142123,76.102704 c 0.202818,0.1926 0.426584,0.34642 0.608456,0.57782 0.263576,0.33533 0.227305,2.68253 0.165945,3.20022 -0.04926,0.41568 -0.243671,0.82158 -0.276569,1.24453 -0.05745,0.73851 -0.05532,1.61769 -0.05532,2.35572 0,0.7006 0.165939,1.39638 0.165939,2.08903 0,2.02746 -0.297615,5.34892 -0.829719,7.2894 -0.196869,0.71795 -1.377103,2.71963 -1.327549,3.5558 0.137465,2.31959 1.330768,4.198446 1.216919,6.622686 -0.09788,2.08432 -1.144614,4.11603 -0.110624,6.08931 0.659758,1.25909 2.718783,-0.92693 3.761396,-0.62228 0.767153,0.22417 1.296834,0.98703 1.936015,1.55567 1.033601,0.91953 2.31743,1.94167 3.540133,2.22238 0.54304,0.12467 1.200805,0.13195 1.714751,-0.17779 0.479521,-0.289 0.491908,-1.42603 0.774411,-1.95569 0.293437,-0.55018 0.845386,-1.06347 1.272234,-1.37787 0.604992,-0.44564 3.372803,-1.07446 3.484829,-1.64456 0.04514,-0.22964 0.05533,-0.47265 0.05533,-0.71116 0,-0.77509 -0.01973,-1.74933 -0.553148,-2.17793 -0.597818,-0.48037 -3.46483,1.59688 -4.314542,1.73345 -1.622532,0.26075 -3.014349,-1.46104 -4.425175,-2.31127 -1.000064,-0.60268 -2.979507,-0.54376 -3.595449,-1.82235 -0.393849,-0.81756 -0.912903,-4.377906 -0.05532,-5.067016 0.364558,-0.29294 0.872101,-0.12741 1.272234,-0.31113 0.473903,-0.2176 1.290743,-0.85114 1.659442,-1.15563 1.544071,-1.2752 3.125475,-3.45095 4.978316,-3.68916 0.713458,-0.0917 4.376506,0.93248 4.867694,0.0444 0.258955,-0.46816 0.03808,-0.76294 -0.165944,-1.20008 -0.686716,-1.47146 -1.50394,-2.01621 -2.710416,-2.31127 -1.908222,-0.46666 -3.202398,2.42003 -4.923004,3.11133 -1.345537,0.5406 -2.172217,0.0182 -3.04231,-1.51121 -1.108285,-1.94809 -1.275464,-4.36813 -0.829717,-6.75602 0.382314,-2.04811 1.625003,-2.98187 3.042301,-3.24468 0.69571,-0.12901 1.474648,0.0402 2.157275,-0.22224 0.215603,-0.0828 0.396223,-0.30101 0.608457,-0.40003 4.153119,-1.93773 -1.78837,1.13434 2.101959,-0.97784 1.838304,-0.99808 3.651121,-1.7261 4.314546,-4.71144 0.118307,-0.53236 -0.693471,-1.00336 -0.885035,-1.06674 -1.258083,-0.41627 -2.45751,0.30447 -3.706079,0.40003 -1.374968,0.10523 -2.828507,-0.2551 -4.203921,-0.35558 -1.838355,-0.13429 -6.357779,0.0766 -7.135585,2.88908"
       id="path84" />
    <path
       style="opacity:1;mix-blend-mode:normal;fill:url(#linearGradient1603);fill-opacity:1;fill-rule:evenodd;stroke:#000000;stroke-width:0.4;stroke-linecap:butt;stroke-linejoin:bevel;stroke-opacity:1;stroke-miterlimit:4;stroke-dasharray:9.59999996, 0.40000000000000002;stroke-dashoffset:0;paint-order:normal"
       d="m 110.96393,71.144254 c -2.02871,-0.0188 -3.83194,1.41073 -5.53146,2.84464 -2.11834,1.78729 -3.32084,2.7593 -4.86769,5.55595 -0.53904,0.97457 -0.606068,0.87895 -0.885036,2.04459 -0.509233,2.12779 -0.174305,2.51389 -0.110628,4.35586 0.02985,0.86383 0,1.72285 0,2.57795 0,1.07749 0.219076,2.26846 0.331888,3.33357 0.330736,3.12262 0.399446,6.43773 1.438176,9.289516 0.88586,2.43209 2.39129,3.94429 3.59545,6.00042 1.3548,2.31335 2.78937,5.05255 5.08895,5.20036 1.33441,0.0858 3.10279,-0.56762 4.25922,-1.60011 0.96631,-0.86272 0.19197,-0.32418 0.88504,-1.06674 0.36236,-0.38823 0.94035,-1.18827 0.94035,-1.95569 0,-1.71525 -1.38891,-1.55566 -2.21258,-1.55566 -1.35599,0 -2.831,0.70515 -4.1486,-0.0889 -0.9544,-0.57516 -1.77812,-1.85283 -2.54447,-2.8002 -0.58981,-0.72912 -1.45693,-0.97275 -1.99133,-1.77789 -0.25685,-0.38699 -0.32094,-0.95341 -0.44252,-1.42232 -0.58141,-2.242486 -0.88763,-4.817346 0.16594,-6.933816 0.50815,-1.02079 2.01176,-1.44636 2.10196,-2.5335 0.12153,-1.46484 -0.53186,-2.97 -1.32755,-3.8225 -0.17209,-0.18437 -0.34949,-0.29498 -0.49783,-0.53338 -0.28892,-0.46431 -0.59063,-1.57576 -0.66378,-2.22237 -0.19058,-1.68453 0.44924,-2.06931 1.27224,-3.15577 0.73711,-0.97307 2.21756,-2.90117 3.09762,-3.46691 1.35425,-0.87055 2.94758,-0.86547 4.25922,-1.73346 1.13278,-0.7496 2.32435,-2.22414 3.15293,-3.5558 0.33635,-0.54055 -0.72153,-1.22716 -0.94034,-1.37787 -1.16566,-0.80286 -2.71458,-0.43425 -3.92733,-0.0444"
       id="path86" />
    <path
       style="opacity:1;mix-blend-mode:normal;fill:url(#linearGradient1605);fill-opacity:1;fill-rule:evenodd;stroke:#000000;stroke-width:0.4;stroke-linecap:butt;stroke-linejoin:bevel;stroke-opacity:1;stroke-miterlimit:4;stroke-dasharray:9.59999996, 0.40000000000000002;stroke-dashoffset:0;paint-order:normal"
       d="m 118.61565,71.621144 c 1.19799,0.19139 2.37373,-0.40003 3.59545,-0.40003 1.97677,0 3.87582,0.62031 5.86336,0.40003 1.19604,-0.13257 2.41168,-0.27097 3.59544,-0.53337 0.69986,-0.15514 1.44721,-0.53338 2.15728,-0.53338 1.65127,0 3.21148,0.68845 4.75706,1.42233 0.83616,0.39702 2.26165,0.95276 2.59978,2.31126 0.29897,1.20115 -1.05711,2.51529 -1.60412,3.02244 -1.29711,1.20262 -2.41026,0.58839 -3.8167,0.40003 -2.36253,-0.31641 -4.64561,-0.64734 -6.52714,1.91124 -0.63532,0.86395 -0.99758,1.15392 -0.94035,2.53351 0.11954,2.8815 0.95955,2.52013 1.88071,4.22251 0.54304,1.00361 0.86603,2.30587 0.99566,3.55581 0.19047,1.83662 -1.17421,5.67673 -1.99133,7.06716 -0.69678,1.18564 -2.04665,2.17948 -2.04665,3.955816 0,0.26077 0.24548,0.39258 0.3319,0.62227 0.45615,1.21237 0.86343,2.48531 1.27222,3.7336 0.83703,2.55592 0.76447,6.48079 0.11064,9.06729 -0.42299,1.6733 -0.4869,1.98386 -1.60412,2.13348 -1.28329,0.17187 -1.61668,-0.29049 -2.37853,-1.73346 -0.35011,-0.66314 -0.8757,-1.37307 -1.05098,-2.17792 -0.5108,-2.34539 -0.22621,-4.55365 -0.0553,-6.93382 0.17837,-2.48446 0.29548,-4.98589 0.44251,-7.467176 0.15241,-2.57206 -0.0712,-5.3725 -0.3872,-7.91166 -0.20342,-1.63457 -0.80307,-2.96902 -1.21691,-4.48921 -0.3131,-1.15012 -0.47097,-3.04528 -1.32756,-3.73358 -0.79689,-0.64035 -4.6817,-0.50279 -5.69741,-0.44449 -0.6187,0.0355 -2.87137,0.20589 -3.0423,-0.75559 -0.0642,-0.36121 0.0569,-0.64665 0.11062,-0.97786 0.0926,-0.57023 -0.0153,-0.56101 0.16595,-1.02229 0.82488,-2.09895 2.76766,-2.84768 3.8167,-4.53365"
       id="path88" />
    <path
       style="opacity:1;mix-blend-mode:normal;fill:url(#linearGradient1607);fill-opacity:1;fill-rule:evenodd;stroke:#000000;stroke-width:0.4;stroke-linecap:butt;stroke-linejoin:bevel;stroke-opacity:1;stroke-miterlimit:4;stroke-dasharray:9.59999996, 0.40000000000000002;stroke-dashoffset:0;paint-order:normal"
       d="m 136.42339,82.968184 c 0.27498,0.88386 0.38358,1.01148 0.44251,1.91125 0.0496,0.75642 -0.0409,1.36064 -0.11064,2.08902 -0.26119,2.7286 -0.21324,4.80315 -0.99565,7.42275 -0.4369,1.46276 -1.27301,3.07432 -1.43818,4.66698 -0.14303,1.379226 -0.11064,3.040696 -0.11064,4.444766 0,1.12535 0.18255,2.38674 0.0553,3.51135 -0.0446,0.39423 -0.17233,0.76244 -0.22125,1.15563 -0.14608,1.17375 -0.26101,2.34448 -0.44252,3.51136 -0.0435,0.27959 -0.18676,0.47833 -0.22126,0.75561 -0.17043,1.3695 -0.3872,2.72711 -0.3872,4.08918 0,0.20473 -0.34433,1.72344 -0.27658,1.77789 0.11911,0.0957 0.21624,0.43236 0.44252,0.57781 1.68849,1.08544 3.50919,-0.40186 4.31453,-2.66685 0.26503,-0.74534 -0.30138,-2.00444 -0.38719,-2.71129 -0.08,-0.65895 -0.11064,-1.33135 -0.11064,-2.00015 0,-1.82217 0.25455,-4.42725 0.82973,-6.04486 0.31054,-0.87335 0.85298,-1.83514 1.21692,-2.80019 0.69402,-1.84034 1.14935,-4.064476 2.82105,-4.400306 0.52772,-0.10601 1.03006,0.19258 1.32755,0.8445 0.27351,0.59939 0.21244,0.928256 0.33189,1.600116 0.14694,0.82652 0.36918,1.55596 0.49783,2.40015 0.17799,1.16803 0.21618,2.42422 0.49782,3.55581 0.43196,1.73544 1.12718,3.70283 2.10196,4.93368 1.09738,1.38564 4.16038,2.75728 5.58679,2.22237 0.92964,-0.34859 1.64186,-1.86081 2.04664,-3.02242 0.233,-0.66863 0.49784,-1.2744 0.49784,-2.04459 0,-0.99604 -0.0937,-0.79102 -0.16595,-1.7779 -0.14524,-1.98401 -1.06659,-2.47524 -2.04664,-3.60025 -0.6091,-0.69918 -0.98543,-1.71701 -1.4935,-2.53351 -0.56003,-0.900006 -1.41654,-1.286746 -1.99133,-2.133476 -0.45755,-0.67404 -0.68179,-1.56911 -0.94035,-2.40017 -0.15044,-0.48356 -0.37578,-0.97496 -0.44251,-1.51121 -0.11494,-0.92357 0.46589,-1.98036 0.77441,-2.66685 0.46638,-1.0378 0.8816,-1.88702 1.60411,-2.62241 0.91878,-0.93514 2.0353,-1.4497 2.71043,-2.84464 0.22144,-0.45758 0.69094,-1.90329 0.3872,-2.48906 -0.93298,-1.79924 -1.82829,-4.0747 -3.26356,-5.15592 -0.78267,-0.5896 -2.73111,-1.27452 -3.65078,-1.42232 -1.44628,-0.23244 -4.83547,-0.23622 -6.19523,0.62226 -0.51797,0.32702 -0.94502,0.84965 -1.38287,1.33343 -0.1431,0.1581 -0.32097,0.2047 -0.44252,0.40003"
       id="path90" />
    <path
       style="opacity:1;mix-blend-mode:normal;fill:url(#linearGradient1609);fill-opacity:1;fill-rule:evenodd;stroke:#000000;stroke-width:0.4;stroke-linecap:butt;stroke-linejoin:bevel;stroke-opacity:1;stroke-miterlimit:4;stroke-dasharray:9.59999996, 0.40000000000000002;stroke-dashoffset:0;paint-order:normal"
       d="m 136.42339,82.968184 1.77006,-3.02243"
       id="path100" />
    <path
       style="opacity:1;mix-blend-mode:normal;fill:url(#linearGradient1611);fill-opacity:1;fill-rule:evenodd;stroke:#000000;stroke-width:0.4;stroke-linecap:butt;stroke-linejoin:bevel;stroke-opacity:1;stroke-miterlimit:4;stroke-dasharray:9.59999996, 0.40000000000000002;stroke-dashoffset:0;paint-order:normal"
       d="m 83.142123,76.102704 0.553157,-0.80009"
       id="path106" />
    <path
       style="opacity:1;mix-blend-mode:normal;fill:url(#linearGradient1613);fill-opacity:1;fill-rule:evenodd;stroke:#000000;stroke-width:0.4;stroke-linecap:butt;stroke-linejoin:bevel;stroke-opacity:1;stroke-miterlimit:4;stroke-dasharray:9.59999996, 0.40000000000000002;stroke-dashoffset:0;paint-order:normal"
       d="m 110.96393,71.144254 0.49784,-0.4444"
       id="path108" />
    <path
       style="opacity:1;mix-blend-mode:normal;fill:url(#linearGradient1615);fill-opacity:1;fill-rule:evenodd;stroke:#000000;stroke-width:0.4;stroke-linecap:butt;stroke-linejoin:bevel;stroke-opacity:1;stroke-miterlimit:4;stroke-dasharray:9.59999996, 0.40000000000000002;stroke-dashoffset:0;paint-order:normal"
       d="m 116.62431,74.332434 1.99134,-2.71129"
       id="path110" />
    <path
       style="opacity:1;mix-blend-mode:normal;fill:url(#linearGradient1617);fill-opacity:1;fill-rule:evenodd;stroke:#000000;stroke-width:0.4;stroke-linecap:butt;stroke-linejoin:bevel;stroke-opacity:1;stroke-miterlimit:4;stroke-dasharray:9.59999996, 0.40000000000000002;stroke-dashoffset:0;paint-order:normal"
       d="m 161.29762,76.683171 c 0.21835,0.90327 0.31854,1.038037 0.32019,1.943575 0.002,0.761283 -0.12735,1.36115 -0.243,2.086778 -0.43418,2.71825 -0.51782,4.80056 -1.46514,7.376607 -0.52895,1.438443 -1.46574,3.000776 -1.73176,4.586605 -0.23025,1.373316 -0.30346,3.040605 -0.39265,4.447861 -0.0715,1.127907 0.0306,2.403712 -0.16777,3.522833 -0.0695,0.3923 -0.22052,0.75325 -0.29436,1.14424 -0.22044,1.16716 -0.40942,2.33329 -0.66466,3.49133 -0.0613,0.27747 -0.21686,0.46761 -0.26897,0.74332 -0.25694,1.36184 -0.55965,2.70881 -0.64617,4.07397 -0.013,0.2052 -0.45296,1.70558 -0.38888,1.76445 0.11285,0.10344 0.18848,0.44701 0.4049,0.6071 1.61616,1.1947 3.52763,-0.18082 4.47521,-2.4 0.31179,-0.73027 -0.17339,-2.02805 -0.21418,-2.74194 -0.0379,-0.6655 -0.0257,-1.34135 0.0168,-2.01167 0.11575,-1.82631 0.53525,-4.42121 1.21205,-6.006098 0.36555,-0.855682 0.96784,-1.785347 1.39234,-2.729566 0.80952,-1.800622 1.40519,-4.00101 3.09486,-4.231865 0.53337,-0.07287 1.01573,0.258185 1.27119,0.9304 0.23499,0.618051 0.15302,0.943799 0.22962,1.624738 0.0941,0.837679 0.26962,1.582844 0.34437,2.437092 0.10328,1.18192 0.0619,2.44339 0.27094,3.595359 0.32083,1.76671 0.88969,3.78253 1.78428,5.07782 1.00713,1.45819 3.97683,3.02668 5.43433,2.58079 0.9499,-0.29059 1.7567,-1.76119 2.23448,-2.89983 0.27493,-0.65541 0.57778,-1.24578 0.62671,-2.01774 0.0633,-0.99828 -0.0432,-0.79873 -0.0527,-1.79242 -0.0188,-1.997693 -0.9072,-2.548322 -1.8138,-3.737879 -0.56343,-0.739289 -0.87438,-1.783238 -1.3295,-2.633719 -0.50174,-0.937474 -1.33196,-1.379263 -1.85178,-2.264275 -0.4138,-0.704515 -0.58075,-1.6158 -0.786,-2.465103 -0.11947,-0.494177 -0.31305,-1.000936 -0.3456,-1.54262 -0.0559,-0.932937 0.59075,-1.955388 0.94223,-2.623925 0.5314,-1.010652 0.99971,-1.835531 1.76748,-2.526892 0.97631,-0.879145 2.12326,-1.324258 2.88562,-2.679651 0.25003,-0.444615 0.81045,-1.863909 0.54453,-2.470213 -0.81681,-1.862335 -1.56574,-4.199598 -2.92944,-5.374058 -0.74361,-0.640438 -2.64461,-1.450154 -3.55303,-1.656447 -1.42858,-0.324462 -4.81066,-0.542616 -6.22219,0.231811 -0.53773,0.294988 -0.99708,0.791797 -1.46478,1.248979 -0.15268,0.149412 -0.33349,0.184846 -0.46705,0.372944"
       id="path90-3" />
    <path
       style="opacity:1;mix-blend-mode:normal;fill:url(#linearGradient1619);fill-opacity:1;fill-rule:evenodd;stroke:#000000;stroke-width:0.4;stroke-linecap:butt;stroke-linejoin:bevel;stroke-opacity:1;stroke-miterlimit:4;stroke-dasharray:9.59999996, 0.40000000000000002;stroke-dashoffset:0;paint-order:normal"
       d="m 161.29394,76.742817 1.95771,-2.904414"
       id="path1043" />
    <path
       style="opacity:1;mix-blend-mode:normal;fill:url(#linearGradient1621);fill-opacity:1;fill-rule:evenodd;stroke:#000000;stroke-width:0.4;stroke-linecap:butt;stroke-linejoin:bevel;stroke-opacity:1;stroke-miterlimit:4;stroke-dasharray:9.59999996, 0.40000000000000002;stroke-dashoffset:0;paint-order:normal"
       d="m 208.40163,88.532976 c -0.53646,2.641863 -1.07292,5.283724 -1.60939,7.925589 -0.28562,1.406589 -0.57125,2.813179 -0.85687,4.219765 -0.19738,0.97201 -0.3963,1.91142 -0.48198,2.89145 -0.0203,0.23269 -0.13876,0.45314 -0.13945,0.68671 -4.7e-4,0.14601 0.0963,0.27801 0.11401,0.42296 0.0261,0.21408 -0.067,0.47204 -0.04,0.68901 0.0171,0.13746 0.17713,0.21821 0.2295,0.34646 0.0691,0.16912 -0.17574,0.0293 0.057,0.21146 0.28897,0.22613 0.69803,0.24164 1.04462,0.31202 0.35183,0.0714 1.09968,0.39751 1.42354,0.18917 0.0298,-0.0191 0.65411,-3.16196 0.67869,-3.34231 0.10671,-0.7838 -0.10837,-1.59257 -0.0858,-2.38494 0.0204,-0.716926 -0.001,-0.934186 0.11071,-1.739176 0.0405,-0.291 0.13717,-0.5725 0.1754,-0.86381 0.0496,-0.37812 -0.008,-1.581873 0.004,-1.77953 0.0124,-0.204967 0.0988,-0.399765 0.12259,-0.603734 0.0795,-0.683591 0.12009,-1.420781 0.12177,-2.107046 0.001,-0.540935 0.3558,-1.093868 0.33169,-1.63344 -0.0209,-0.467242 0.0343,-0.71959 -0.0557,-1.216433 -0.0373,-0.206037 0.0687,-0.469163 0.041,-0.694196 -0.041,-0.332039 0.34044,-0.831353 0.23218,-1.143432 -0.0187,-0.05401 -0.35454,-0.157484 -0.39339,-0.179832 -0.08,-0.04605 -0.073,-0.184918 -0.153,-0.230973 -0.27895,-0.160486 -0.59704,-0.06103 -0.87103,0.02423 z"
       id="path912" />
    <path
       style="opacity:1;mix-blend-mode:normal;fill:url(#linearGradient1623);fill-opacity:1;fill-rule:evenodd;stroke:#000000;stroke-width:0.4;stroke-linecap:butt;stroke-linejoin:bevel;stroke-opacity:1;stroke-miterlimit:4;stroke-dasharray:9.59999996, 0.40000000000000002;stroke-dashoffset:0;paint-order:normal"
       d="m 207.615,84.727585 c -0.21446,-0.820019 -0.0584,-1.645726 0.10658,-2.458193 0.073,-0.359334 0.007,-0.154243 0.33077,-0.635968 0.5497,-0.8167 1.29267,-1.507825 2.34159,-1.007181 1.20212,0.573762 2.51556,3.654906 1.81497,4.872602 -0.19384,0.336913 -0.50104,0.658283 -0.70087,0.964908 -0.0791,0.121352 -0.0989,0.278012 -0.18932,0.391174 -0.0226,0.02818 -0.071,-0.03014 -0.10612,-0.02155 -0.12645,0.03102 -0.21952,0.193204 -0.34502,0.228541 -0.34874,0.09821 -0.62695,0.167297 -0.99953,0.09164 -0.44543,-0.09045 -1.14754,-0.496943 -1.40455,-0.884917 -0.11049,-0.166811 -0.17112,-0.475604 -0.33357,-0.508591 z"
       id="path916" />
    <path
       style="opacity:1;mix-blend-mode:normal;fill:url(#linearGradient1625);fill-opacity:1;fill-rule:evenodd;stroke:#000000;stroke-width:0.4;stroke-linecap:butt;stroke-linejoin:bevel;stroke-opacity:1;stroke-miterlimit:4;stroke-dasharray:9.59999996, 0.40000000000000002;stroke-dashoffset:0;paint-order:normal"
       d="m 181.12468,106.95235 c 0.44574,-1.4745 1.16026,-2.63569 2.78801,-2.86822 0.18284,-0.0261 0.37491,0.0448 0.5541,0 0.38687,-0.0967 0.97236,-0.27616 1.38525,-0.13853 0.19953,0.0665 1.75285,1.81407 1.83015,1.96867 0.18852,0.37704 0.0969,0.83755 0.13852,1.25704 0.0183,0.1838 0.12838,0.42131 0,0.5541 -0.2811,0.2908 -0.79307,0.3241 -1.24037,0.54775 -0.37896,0.18948 -0.68414,0.30956 -1.1082,0.41558 -0.17919,0.0448 -0.37492,-0.0448 -0.5541,0 -1.40973,0.35243 -2.67756,0.0385 -3.58185,-0.95301 -0.18226,-0.19985 -0.12774,-0.5262 -0.21151,-0.78338 z"
       id="path1008" />
    <path
       style="opacity:1;mix-blend-mode:normal;fill:url(#linearGradient1627);fill-opacity:1;fill-rule:evenodd;stroke:#000000;stroke-width:0.4;stroke-linecap:butt;stroke-linejoin:bevel;stroke-opacity:1;stroke-miterlimit:4;stroke-dasharray:9.59999996, 0.40000000000000002;stroke-dashoffset:0;paint-order:normal"
       d="m 193.51325,106.80771 c 0.6693,-1.12952 0.7256,-2.66751 0.5844,-4.01771 -0.0571,-0.5463 -0.46317,-1.03656 -0.51947,-1.60708 -0.18625,-1.885706 -0.40603,-3.871176 0.3896,-5.66132 0.63668,-1.432507 3.82524,-0.893627 5.12968,-1.168789 0.44127,-0.09308 0.88367,-0.354621 0.58439,-0.803546 -1.84459,-2.766922 -6.87156,-1.548303 -7.92178,-3.615935 -0.1624,-0.319723 0.43576,-2.19152 0.51946,-2.447155 0.36757,-1.122432 1.74127,-4.575458 2.66224,-5.223019 0.64753,-0.4553 1.90709,-0.504589 2.66224,-0.292202 2.04063,0.573935 2.97353,1.938028 2.59731,4.054238 -0.13979,0.786315 -0.59685,1.514697 -0.7792,2.301054 -0.0861,0.371304 -0.41213,2.060473 0.25973,2.154953 1.85893,0.26142 2.06842,-2.199731 2.46745,-3.396793 0.25393,-0.761782 0.9154,-0.960336 1.29865,-1.607083 0.53307,-0.89958 0.78049,-3.087823 0.51947,-4.017713 -0.11062,-0.394047 -0.74822,-1.242774 -0.90907,-1.460983 -0.54348,-0.737298 -1.21048,-1.411401 -2.01291,-1.86276 -1.91282,-1.075952 -6.22,-1.913409 -8.11658,-0.54787 -1.41205,1.016676 -2.0173,2.648664 -2.66225,4.163814 -0.39855,0.936302 -0.83726,1.691534 -1.10386,2.666298 -0.50273,1.838129 -0.57679,3.838991 -0.38959,5.734363 0.0197,0.199443 0.31509,0.960419 0.12987,1.16879 -1.08443,1.219942 -1.40835,-0.02813 -2.33758,0.146101 -1.30745,0.24515 -2.85898,1.393401 -3.31157,2.666296 -0.18045,0.507498 0.5021,0.562472 0.7792,0.620922 0.60171,0.126926 1.20341,0.302384 1.81811,0.365244 0.79362,0.08116 2.63661,-0.197048 3.24664,0.1461 0.7866,0.442474 0.50789,1.240507 0.58439,1.972339 0.0585,0.55977 0.3336,1.09208 0.3896,1.64361 0.0108,0.10603 -0.10677,0.18814 -0.12987,0.29219 -0.0505,0.2271 -0.1948,2.140156 -0.1948,2.301046 0,0.76701 0.25973,1.56634 0.25973,2.30105 0,0.43584 -0.24064,1.06136 -0.12986,1.49751 0.0685,0.26976 0.42374,1.18952 0.58439,1.42447 0.30522,0.44637 1.13173,0.48529 1.55838,0.58439 z"
       id="path1010" />
  </g>
</svg>
